<svg width="686" height="179" viewBox="0 0 686 179" fill="none" xmlns="http://www.w3.org/2000/svg">
<path fill-rule="evenodd" clip-rule="evenodd" d="M77.7254 0C79.9345 2.13066e-06 81.7254 1.79086 81.7254 4V24.6049C93.2075 27.3579 104.099 33.2164 113.054 42.1716C114.897 44.0143 116.609 45.9398 118.191 47.9366C119.562 49.6683 119.27 52.1841 117.539 53.5558C115.807 54.9275 113.291 54.6356 111.92 52.904C110.529 51.1481 109.021 49.4529 107.397 47.8284C100.004 40.4357 91.1263 35.4501 81.7254 32.8644V53.9446C85.9363 55.8055 89.8784 58.4603 93.3217 61.9036C94.387 62.9689 95.3774 64.0826 96.2926 65.2379C97.6643 66.9696 97.3725 69.4854 95.6408 70.8571C93.9091 72.2288 91.3933 71.937 90.0216 70.2053C89.2973 69.2909 88.5119 68.4075 87.6649 67.5605C84.364 64.2596 80.5007 61.8844 76.388 60.4254L73.7254 59.4807V4C73.7254 1.79086 75.5163 2.21495e-06 77.7254 0ZM55.2254 0C57.4345 2.21495e-06 59.2254 1.79086 59.2254 4V27.6801C59.2263 27.7293 59.2263 27.7783 59.2254 27.8272V59.3544L56.5043 60.2726C52.2263 61.7161 48.2044 64.1421 44.7859 67.5605C32.9452 79.4012 32.9452 98.5988 44.7859 110.439C48.1923 113.846 52.1978 116.267 56.4588 117.712L59.1739 118.633L59.1739 149.604C59.242 150.02 59.245 150.453 59.1739 150.891L59.1739 174.5C59.1739 176.709 57.383 178.5 55.1739 178.5C52.9648 178.5 51.1739 176.709 51.1739 174.5L51.1739 153.501C39.5274 150.794 28.469 144.901 19.397 135.828C-6.46566 109.966 -6.46566 68.0342 19.397 42.1716C28.4824 33.0861 39.56 27.1886 51.2254 24.4871V4C51.2254 1.79086 53.0163 2.13066e-06 55.2254 0ZM25.0538 47.8284C32.5772 40.3051 41.6391 35.2743 51.2254 32.7292V53.7279C46.8268 55.597 42.7086 58.3241 39.1291 61.9037C24.1642 76.8685 24.1642 101.131 39.1291 116.096C42.6946 119.662 46.7947 122.382 51.1739 124.25L51.1739 145.257C41.6067 142.708 32.5637 137.681 25.0538 130.172C2.31539 107.433 2.31539 70.5669 25.0538 47.8284ZM95.6408 107.143C97.3724 108.515 97.6643 111.03 96.2926 112.762C95.3774 113.917 94.387 115.031 93.3217 116.096C89.7566 119.661 85.657 122.381 81.2781 124.25V145.257C90.8446 142.707 99.8871 137.682 107.397 130.172C109.021 128.547 110.529 126.852 111.92 125.096C113.291 123.364 115.807 123.073 117.539 124.444C119.27 125.816 119.562 128.332 118.191 130.063C116.609 132.06 114.897 133.986 113.054 135.828C103.982 144.9 92.9245 150.794 81.2781 153.501V175C81.2781 177.209 79.4872 179 77.2781 179C75.069 179 73.2781 177.209 73.2781 175L73.2781 118.633L75.9931 117.712C80.2535 116.267 84.2587 113.846 87.6649 110.439C88.5119 109.592 89.2973 108.709 90.0216 107.795C91.3933 106.063 93.9091 105.771 95.6408 107.143ZM66 103C73.732 103 80 96.732 80 89C80 81.268 73.732 75 66 75C58.268 75 52 81.268 52 89C52 96.732 58.268 103 66 103Z" fill="url(#paint0_linear_4135_138592)"/>
<path d="M205.125 129.5C213.392 129.5 220.325 127.45 225.925 123.35C231.559 119.25 235.525 113.7 237.825 106.7L224.125 102.9C222.792 107.233 220.542 110.617 217.375 113.05C214.209 115.483 210.125 116.7 205.125 116.7C198.292 116.7 193.142 114.467 189.675 110C186.242 105.5 184.525 99.5 184.525 92C184.525 84.5 186.242 78.5167 189.675 74.05C193.142 69.55 198.292 67.3 205.125 67.3C210.125 67.3 214.209 68.5167 217.375 70.95C220.542 73.35 222.792 76.7333 224.125 81.1L237.825 77.3C235.525 70.3 231.559 64.75 225.925 60.65C220.325 56.55 213.392 54.5 205.125 54.5C197.925 54.5 191.709 56.0667 186.475 59.2C181.275 62.3333 177.259 66.7167 174.425 72.35C171.625 77.9833 170.225 84.5333 170.225 92C170.225 99.4667 171.625 106.017 174.425 111.65C177.259 117.283 181.275 121.667 186.475 124.8C191.709 127.933 197.925 129.5 205.125 129.5ZM273.135 129.5C278.535 129.5 283.285 128.3 287.385 125.9C291.518 123.467 294.735 120.117 297.035 115.85C299.368 111.55 300.535 106.6 300.535 101C300.535 95.4333 299.385 90.5167 297.085 86.25C294.785 81.95 291.568 78.5833 287.435 76.15C283.335 73.7167 278.568 72.5 273.135 72.5C267.801 72.5 263.085 73.7 258.985 76.1C254.885 78.5 251.668 81.85 249.335 86.15C247.001 90.4167 245.835 95.3667 245.835 101C245.835 106.567 246.968 111.5 249.235 115.8C251.535 120.067 254.735 123.417 258.835 125.85C262.935 128.283 267.701 129.5 273.135 129.5ZM273.135 116.8C268.901 116.8 265.685 115.383 263.485 112.55C261.318 109.683 260.235 105.833 260.235 101C260.235 96.3 261.268 92.5 263.335 89.6C265.435 86.6667 268.701 85.2 273.135 85.2C277.435 85.2 280.668 86.6333 282.835 89.5C285.035 92.3667 286.135 96.2 286.135 101C286.135 105.633 285.051 109.433 282.885 112.4C280.751 115.333 277.501 116.8 273.135 116.8ZM312.53 66.5H326.13V54.5H312.53V66.5ZM312.53 128H326.13V74H312.53V128ZM341.02 128H354.82V100.6C354.82 97.2333 355.187 94.5333 355.92 92.5C356.687 90.4667 357.653 88.9333 358.82 87.9C359.987 86.8333 361.237 86.1167 362.57 85.75C363.903 85.3833 365.153 85.2 366.32 85.2C369.22 85.2 371.453 85.85 373.02 87.15C374.62 88.45 375.77 90.0667 376.47 92C377.17 93.9333 377.587 95.8667 377.72 97.8C377.853 99.7 377.92 101.267 377.92 102.5V128H391.72V97.7C391.72 96.8 391.653 95.3667 391.52 93.4C391.387 91.4333 391.003 89.2667 390.37 86.9C389.737 84.5 388.67 82.2 387.17 80C385.703 77.8 383.637 75.9833 380.97 74.55C378.303 73.1167 374.853 72.4 370.62 72.4C366.72 72.4 363.32 73.05 360.42 74.35C357.52 75.65 355.087 77.3833 353.12 79.55V74H341.02V128ZM425.794 129.5C432.861 129.5 438.394 127.917 442.394 124.75C446.394 121.583 448.394 117.233 448.394 111.7C448.394 107.5 447.094 104.183 444.494 101.75C441.927 99.3167 437.561 97.3 431.394 95.7C427.194 94.6333 424.061 93.7667 421.994 93.1C419.961 92.4333 418.611 91.7833 417.944 91.15C417.311 90.5167 416.994 89.7333 416.994 88.8C416.994 87.2333 417.744 86.0333 419.244 85.2C420.777 84.3667 422.794 84.0333 425.294 84.2C430.594 84.6 433.494 86.8667 433.994 91L447.894 88.5C447.194 83.6 444.794 79.7167 440.694 76.85C436.594 73.95 431.361 72.5 424.994 72.5C418.461 72.5 413.244 74.0333 409.344 77.1C405.444 80.1667 403.494 84.3 403.494 89.5C403.494 93.6333 404.844 96.9 407.544 99.3C410.244 101.667 414.894 103.7 421.494 105.4C425.394 106.433 428.261 107.267 430.094 107.9C431.961 108.533 433.161 109.183 433.694 109.85C434.227 110.483 434.494 111.333 434.494 112.4C434.494 114.1 433.827 115.433 432.494 116.4C431.161 117.333 429.261 117.8 426.794 117.8C423.794 117.8 421.311 117.083 419.344 115.65C417.411 114.217 416.161 112.233 415.594 109.7L401.694 111.8C402.594 117.433 405.127 121.8 409.294 124.9C413.494 127.967 418.994 129.5 425.794 129.5ZM460.382 128H473.982V54.5H460.382V128ZM513.271 129.5C518.671 129.5 523.421 128.3 527.522 125.9C531.655 123.467 534.872 120.117 537.172 115.85C539.505 111.55 540.671 106.6 540.671 101C540.671 95.4333 539.521 90.5167 537.221 86.25C534.921 81.95 531.705 78.5833 527.571 76.15C523.471 73.7167 518.705 72.5 513.271 72.5C507.938 72.5 503.221 73.7 499.121 76.1C495.021 78.5 491.805 81.85 489.471 86.15C487.138 90.4167 485.971 95.3667 485.971 101C485.971 106.567 487.105 111.5 489.371 115.8C491.671 120.067 494.871 123.417 498.971 125.85C503.071 128.283 507.838 129.5 513.271 129.5ZM513.271 116.8C509.038 116.8 505.821 115.383 503.621 112.55C501.455 109.683 500.371 105.833 500.371 101C500.371 96.3 501.405 92.5 503.471 89.6C505.571 86.6667 508.838 85.2 513.271 85.2C517.571 85.2 520.805 86.6333 522.971 89.5C525.171 92.3667 526.271 96.2 526.271 101C526.271 105.633 525.188 109.433 523.021 112.4C520.888 115.333 517.638 116.8 513.271 116.8ZM584.067 128V116.7C580.867 117.133 577.95 117.267 575.317 117.1C572.683 116.933 570.767 115.9 569.567 114C568.933 113 568.583 111.667 568.517 110C568.483 108.3 568.467 106.4 568.467 104.3V84.5H584.067V74H568.467V59H554.867V74H545.667V84.5H554.867V105.1C554.867 108.333 554.9 111.233 554.967 113.8C555.033 116.333 555.733 118.833 557.067 121.3C558.533 123.933 560.667 125.85 563.467 127.05C566.3 128.217 569.5 128.833 573.067 128.9C576.667 129 580.333 128.7 584.067 128ZM622.467 128V116.7C619.267 117.133 616.35 117.267 613.717 117.1C611.083 116.933 609.167 115.9 607.967 114C607.333 113 606.983 111.667 606.917 110C606.883 108.3 606.867 106.4 606.867 104.3V84.5H622.467V74H606.867V59H593.267V74H584.067V84.5H593.267V105.1C593.267 108.333 593.3 111.233 593.367 113.8C593.433 116.333 594.133 118.833 595.467 121.3C596.933 123.933 599.067 125.85 601.867 127.05C604.7 128.217 607.9 128.833 611.467 128.9C615.067 129 618.733 128.7 622.467 128ZM641.379 152H653.979L684.479 74H670.879L656.779 110.75L642.579 74H628.479L650.279 127.55L641.379 152Z" fill="white"/>
<defs>
<linearGradient id="paint0_linear_4135_138592" x1="11.5" y1="15" x2="119" y2="188" gradientUnits="userSpaceOnUse">
<stop offset="0.210599" stop-color="#4268FF"/>
<stop offset="1" stop-color="#A22BFF"/>
</linearGradient>
</defs>
</svg>
