<svg fill="none" height="176" viewBox="0 0 230 176" width="230" xmlns="http://www.w3.org/2000/svg"><g fill="#fff"><path d="m20.1523 175.211c-17.44136 0-20.1523-9.753-20.1523-15.095v-1.173c0-5.463 2.34668-14.892 20.1523-14.892h1.6592c17.4404 0 20.1524 8.336 20.1524 11.857v.445h-9.9961c-.2422-.809-1.4561-5.017-11.0069-5.017-9.0234 0-11.08688 4.046-11.08688 7.809v.486c0 3.561 2.38668 8.254 11.16798 8.254 9.753 0 10.7236-4.653 10.9668-5.34h9.9951v.445c0 3.804-2.9941 12.221-20.1923 12.221z"/><path d="m71.9404 169.18h-18.25l-2.7109 5.504h-9.5908l15.2158-30.107h12.2207l16.1055 30.107h-10.1573zm-9.3066-18.088-5.585 11.29h11.4121z"/><path d="m102.566 175.211c-15.7818 0-17.6031-6.799-17.6031-10.765v-.445h9.834c.1211 1.821 1.1728 4.775 8.9421 4.775h.567c7.931 0 8.822-1.578 8.822-3.196 0-1.74-.931-2.833-7.891-3.035l-5.179-.122c-11.2504-.324-14.6898-4.127-14.6898-8.822v-.364c0-4.491 2.6709-9.186 16.3888-9.186h2.792c14.244 0 17.481 4.978 17.481 9.51v.404h-9.793c-.202-1.132-.809-3.601-8.7-3.601h-.647c-7.2845 0-7.8099 1.295-7.8099 2.59s.8086 2.469 6.9599 2.59l5.059.081c11.33.202 15.903 2.954 15.903 8.943v.566c0 4.978-2.51 10.077-17.644 10.077z"/><path d="m136.631 174.684h-9.429v-30.107h9.429z"/><path d="m152.773 144.577 19.222 18.938v-18.938h9.307v30.107h-9.307l-20.435-19.95v19.95h-9.308v-30.107z"/><path d="m208.648 144.051c18.939 0 21.164 9.51 21.164 14.892v1.214c0 5.301-2.185 15.054-21.164 15.054h-1.74c-19.059 0-21.204-9.753-21.204-15.054v-1.214c0-5.382 2.145-14.892 21.204-14.892zm11.29 15.175c0-3.439-1.982-7.89-12.18-7.89-10.36 0-12.18 4.451-12.18 7.89v.486c0 3.439 1.983 8.173 12.18 8.173 10.117 0 12.18-4.612 12.18-8.092z"/></g><path d="m159.033.839111-48.001 33.565989 19.442 13.585 6.327-4.423v24.004l-66.801-46.674v89.4889h23.685v-45.6589l65.348 45.6579z" fill="#ff230a"/><path d="m136.802 73.5801-.001-6.009-36.61-25.579z" fill="#000" opacity=".2"/></svg>