<svg width="162" height="36" viewBox="0 0 162 36" fill="none" xmlns="http://www.w3.org/2000/svg">
  <g clip-path="url(#clip0)">
    <path d="M12.8791 23.8592C14.2316 25.5488 15.9372 26.9527 17.8881 27.9821C18.7743 26.0306 18.3278 23.2456 15.5683 21.8997C15.9522 21.4548 16.3959 21.06 16.888 20.7255C15.4951 20.0007 14.5184 18.8654 14.488 18.8298C15.6462 19.5887 17.0903 20.0332 18.3409 20.0487C18.3453 20.0494 18.3497 20.0494 18.354 20.0487C22.4793 20.0347 25.0016 17.1656 25.7071 16.2402C24.5879 16.3343 23.4737 16.0132 22.5969 15.3437C24.3108 15.6173 26.4622 15.1463 26.4622 15.1463C25.8093 14.1939 24.2024 12.137 21.2855 10.8708C18.9539 9.81705 12.7592 8.73894 8.12199 12.7757C8.12131 12.7764 8.12061 12.777 8.11992 12.777C6.76616 13.9287 5.66542 15.3246 4.88134 16.8842C5.11465 15.7885 5.46886 14.7193 5.93809 13.6946C3.72244 14.2616 1.4633 13.9005 0 13.5394C1.56679 15.959 2.39019 19.7963 1.83879 22.7541C2.15151 22.7118 2.46892 22.7118 2.78165 22.7541C3.03484 22.7888 3.28292 22.8515 3.52089 22.9409C3.80872 29.9185 10.5489 35.4945 17.3166 35.7674C23.7641 36.0273 28.087 31.3873 28.878 30.5382C33.5647 25.5069 33.1209 19.4153 33.0195 18.3036C30.9187 21.6045 26.2446 22.4621 23.0249 20.3065C24.7161 25.2578 22.8028 30.5736 17.944 32.3148C17.9068 32.3293 17.8688 32.3424 17.8308 32.3549C17.7887 32.3701 17.7466 32.3845 17.7045 32.3983C17.6748 32.4089 17.6452 32.4181 17.6155 32.4273C17.5713 32.4424 17.5271 32.4562 17.483 32.4694C17.4636 32.476 17.4443 32.4819 17.425 32.4878H17.4222C15.5896 33.0387 13.561 33.0804 11.5573 32.595C11.5573 32.595 13.7778 32.7516 15.7774 32.001C13.5411 30.8587 13.1036 28.3355 13.6434 25.7949C13.2966 25.1862 13.0394 24.5348 12.8791 23.8592ZM20.3654 12.2541C20.5131 12.2541 20.6593 12.2818 20.7957 12.3356C20.9321 12.3894 21.0561 12.4684 21.1605 12.5679C21.265 12.6674 21.3478 12.7855 21.4043 12.9155C21.4608 13.0455 21.4898 13.1849 21.4898 13.3256C21.4309 14.7473 19.2992 14.7463 19.2403 13.3256C19.2403 13.1849 19.2695 13.0455 19.326 12.9155C19.3826 12.7854 19.4655 12.6673 19.57 12.5678C19.6744 12.4683 19.7985 12.3894 19.9349 12.3356C20.0714 12.2817 20.2177 12.2541 20.3654 12.2541ZM25.5805 2.39815L22.5064 9.51165C20.7299 8.53123 18.728 7.98156 16.6764 7.91095C14.6249 7.84034 12.5866 8.25095 10.7405 9.1067L7.85485 2.39814L13.2906 4.82283L16.7177 0L20.1448 4.82283L25.5805 2.39815ZM5.39534 8.63305C5.15186 8.63305 4.91386 8.56425 4.71142 8.43534C4.50898 8.30644 4.35119 8.12322 4.25802 7.90886C4.16485 7.6945 4.14047 7.45862 4.18797 7.23106C4.23547 7.0035 4.35271 6.79447 4.52487 6.6304C4.69703 6.46634 4.91638 6.35461 5.15517 6.30934C5.39397 6.26408 5.64149 6.28731 5.86643 6.3761C6.09137 6.46489 6.28363 6.61525 6.41889 6.80817C6.55416 7.00109 6.62636 7.2279 6.62636 7.45993C6.62636 7.77106 6.49666 8.06944 6.2658 8.28945C6.03494 8.50945 5.72182 8.63305 5.39534 8.63305ZM28.0109 8.63305C27.7675 8.63305 27.5295 8.56425 27.327 8.43534C27.1246 8.30644 26.9668 8.12322 26.8736 7.90886C26.7804 7.6945 26.7561 7.45862 26.8036 7.23106C26.8511 7.0035 26.9683 6.79447 27.1405 6.6304C27.3126 6.46634 27.532 6.35461 27.7708 6.30934C28.0096 6.26408 28.2571 6.28731 28.482 6.3761C28.707 6.46489 28.8992 6.61525 29.0345 6.80817C29.1698 7.00109 29.242 7.2279 29.242 7.45993C29.242 7.77106 29.1123 8.06944 28.8814 8.28945C28.6505 8.50945 28.3374 8.63305 28.0109 8.63305Z" fill="url(#paint0_linear)"/>
    <path d="M44.1542 27.1737C43.2709 26.8317 42.4933 26.2813 41.8945 25.5743L44.2639 22.8982C45.0829 23.9158 45.9677 24.4245 46.9185 24.4244C47.5472 24.4244 48.0262 24.2432 48.3556 23.8808C48.6846 23.5186 48.8492 22.9889 48.8492 22.2919V15.9988H43.54V12.8H53.1492V22.041C53.1492 23.9367 52.6483 25.3583 51.6464 26.306C50.6444 27.254 49.1709 27.7279 47.2257 27.7277C46.0993 27.7277 45.0754 27.543 44.1542 27.1737Z" fill="white"/>
    <path d="M58.4154 26.8704C57.4267 26.3993 56.5949 25.6754 56.0131 24.7797C55.4352 23.8878 55.1463 22.8773 55.1465 21.7481C55.1465 20.6332 55.4354 19.6297 56.0131 18.7375C56.5911 17.8452 57.4194 17.1246 58.4044 16.6573C59.4209 16.1626 60.5727 15.9152 61.8598 15.915C63.1467 15.915 64.3022 16.1624 65.3262 16.6573C66.3498 17.1521 67.1469 17.8421 67.7176 18.727C68.288 19.6123 68.5732 20.6194 68.5732 21.7481C68.5732 22.8771 68.288 23.8876 67.7176 24.7797C67.1418 25.6764 66.3132 26.4008 65.3262 26.8704C64.3022 27.3722 63.1468 27.623 61.8598 27.623C60.5874 27.623 59.4392 27.3721 58.4154 26.8704ZM63.6588 23.7448C64.1268 23.2639 64.3608 22.5983 64.3609 21.7481C64.3609 20.9118 64.1269 20.2567 63.6588 19.7828C63.1906 19.3091 62.5909 19.0722 61.8598 19.072C61.1283 19.072 60.5286 19.3089 60.0608 19.7828C59.5926 20.2569 59.3586 20.9119 59.3588 21.7481C59.3588 22.5985 59.5928 23.264 60.0608 23.7448C60.5288 24.2256 61.1284 24.466 61.8598 24.466C62.591 24.466 63.1907 24.2256 63.6588 23.7448Z" fill="white"/>
    <path d="M73.0248 26.8704C72.036 26.3993 71.2043 25.6754 70.6225 24.7797C70.0445 23.8878 69.7556 22.8773 69.7559 21.7481C69.7559 20.6332 70.0447 19.6297 70.6225 18.7375C71.2005 17.8452 72.0288 17.1246 73.0138 16.6573C74.0302 16.1626 75.182 15.9152 76.4692 15.915C77.7561 15.915 78.9115 16.1624 79.9356 16.6573C80.9591 17.1521 81.7562 17.8421 82.3269 18.727C82.8973 19.6123 83.1825 20.6194 83.1825 21.7481C83.1825 22.8771 82.8973 23.8876 82.3269 24.7797C81.7512 25.6764 80.9225 26.4008 79.9356 26.8704C78.9116 27.3722 77.7561 27.623 76.4692 27.623C75.1967 27.623 74.0486 27.3721 73.0248 26.8704ZM78.2682 23.7448C78.7361 23.2639 78.9702 22.5983 78.9703 21.7481C78.9703 20.9118 78.7362 20.2567 78.2682 19.7828C77.7999 19.3091 77.2003 19.0722 76.4692 19.072C75.7377 19.072 75.138 19.3089 74.6702 19.7828C74.2019 20.2569 73.9679 20.9119 73.9682 21.7481C73.9682 22.5985 74.2022 23.264 74.6702 23.7448C75.1381 24.2256 75.7378 24.466 76.4692 24.466C77.2004 24.466 77.8001 24.2256 78.2682 23.7448Z" fill="white"/>
    <path d="M88.635 26.7555C87.3865 26.1357 86.3424 25.1986 85.6184 24.048C84.8869 22.8913 84.5213 21.5811 84.5215 20.1175C84.5215 18.654 84.8871 17.3438 85.6184 16.187C86.3425 15.0365 87.3866 14.0994 88.635 13.4795C89.9147 12.8314 91.3591 12.5073 92.968 12.5073C94.3721 12.5073 95.6372 12.7443 96.7635 13.2181C97.8615 13.6717 98.8258 14.3753 99.5716 15.2671L96.8073 17.6504C95.8125 16.5078 94.6059 15.9363 93.1874 15.9361C92.3537 15.9361 91.6115 16.1103 90.9606 16.4588C90.317 16.8001 89.7911 17.3122 89.4468 17.9327C89.0882 18.5671 88.9091 19.2954 88.9093 20.1175C88.9093 20.9401 89.0884 21.6683 89.4468 22.3023C89.7909 22.923 90.3168 23.435 90.9606 23.7762C91.6113 24.1248 92.3535 24.299 93.1874 24.2989C94.6059 24.2989 95.8125 23.7275 96.8073 22.5845L99.5716 24.9679C98.826 25.8599 97.8616 26.5636 96.7635 27.0168C95.637 27.4905 94.3719 27.7275 92.968 27.7277C91.359 27.7277 89.9146 27.4036 88.635 26.7555Z" fill="white"/>
    <path d="M110.893 17.2008C111.931 18.058 112.45 19.3717 112.451 21.1418V27.4349H108.567V25.9714C107.968 27.0726 106.797 27.6231 105.057 27.623C104.136 27.623 103.339 27.4697 102.666 27.1631C101.993 26.8566 101.485 26.442 101.141 25.9191C100.793 25.3825 100.614 24.7621 100.625 24.1315C100.625 23.0584 101.057 22.2256 101.92 21.6332C102.783 21.0409 104.114 20.7447 105.913 20.7446H108.282C108.209 19.546 107.368 18.9466 105.759 18.9466C105.171 18.9493 104.586 19.0374 104.026 19.2079C103.487 19.3599 102.981 19.6043 102.534 19.9292L101.13 17.2322C101.788 16.8141 102.589 16.49 103.532 16.26C104.461 16.0319 105.415 15.916 106.374 15.915C108.348 15.915 109.854 16.3436 110.893 17.2008ZM107.492 24.7797C107.865 24.5475 108.144 24.2008 108.282 23.797V22.8144H106.483C105.269 22.8144 104.662 23.1977 104.662 23.9642C104.657 24.1252 104.692 24.2851 104.764 24.4305C104.837 24.576 104.945 24.7029 105.079 24.8006C105.357 25.0096 105.737 25.1141 106.22 25.1141C106.669 25.1231 107.111 25.0068 107.492 24.7797Z" fill="white"/>
    <path d="M116.464 27.299C115.499 27.083 114.724 26.8008 114.139 26.4522L115.389 23.7343C115.989 24.0786 116.64 24.3358 117.32 24.4974C118.042 24.6826 118.787 24.7775 119.536 24.7797C120.208 24.7797 120.687 24.7134 120.973 24.581C121.258 24.4487 121.4 24.2571 121.4 24.0061C121.4 23.7552 121.229 23.5775 120.885 23.473C120.541 23.3684 119.996 23.2674 119.25 23.1698C118.432 23.0827 117.621 22.9359 116.826 22.7307C116.166 22.5531 115.571 22.206 115.104 21.7272C114.621 21.2395 114.38 20.5565 114.38 19.6783C114.371 18.979 114.611 18.2974 115.06 17.7444C115.513 17.1799 116.175 16.7339 117.046 16.4064C117.916 16.079 118.958 15.9153 120.172 15.915C121.034 15.915 121.894 15.999 122.739 16.1659C123.587 16.3332 124.296 16.5701 124.867 16.8767L123.616 19.5738C122.57 19.0181 121.391 18.73 120.194 18.7375C119.536 18.7375 119.053 18.8106 118.746 18.957C118.439 19.1034 118.285 19.295 118.285 19.532C118.285 19.7969 118.453 19.9815 118.79 20.086C119.126 20.1906 119.682 20.2986 120.457 20.41C121.279 20.518 122.093 20.6786 122.892 20.8909C123.535 21.0719 124.115 21.415 124.571 21.884C125.046 22.3649 125.283 23.0374 125.284 23.9016C125.29 24.5941 125.05 25.2683 124.604 25.8146C124.15 26.379 123.481 26.8216 122.596 27.1422C121.711 27.4626 120.647 27.6229 119.404 27.623C118.414 27.6235 117.428 27.5148 116.464 27.299Z" fill="white"/>
    <path d="M127.325 14.2424C127.104 14.0523 126.927 13.8201 126.806 13.5608C126.686 13.3015 126.623 13.0209 126.623 12.7371C126.623 12.4534 126.686 12.1728 126.806 11.9135C126.927 11.6542 127.104 11.422 127.325 11.2318C127.793 10.8277 128.407 10.6256 129.168 10.6255C129.928 10.6255 130.543 10.8171 131.011 11.2005C131.237 11.3797 131.418 11.6054 131.539 11.8607C131.661 12.1159 131.72 12.3941 131.713 12.6744C131.713 13.3016 131.479 13.8208 131.011 14.232C130.543 14.6433 129.928 14.8489 129.168 14.8488C128.407 14.8488 127.793 14.6467 127.325 14.2424ZM127.084 16.1032H131.252V27.4348H127.084V16.1032Z" fill="white"/>
    <path d="M145.259 17.1695C146.158 18.0058 146.608 19.2672 146.608 20.9537V27.4349H142.44V21.6018C142.44 20.0547 141.789 19.2812 140.487 19.2811C139.77 19.2811 139.196 19.5041 138.765 19.9502C138.333 20.3964 138.118 21.0654 138.118 21.9572V27.4349H133.949V16.1032H137.92V17.3368C138.39 16.8753 138.959 16.5153 139.588 16.281C140.259 16.0322 140.974 15.908 141.694 15.9151C143.171 15.9151 144.359 16.3332 145.259 17.1695Z" fill="white"/>
    <path d="M151.742 26.8704C150.753 26.3993 149.921 25.6754 149.339 24.7797C148.761 23.8878 148.472 22.8773 148.473 21.7481C148.473 20.6332 148.762 19.6297 149.339 18.7375C149.917 17.8452 150.746 17.1246 151.731 16.6573C152.747 16.1626 153.899 15.9152 155.186 15.915C156.473 15.915 157.628 16.1624 158.652 16.6573C159.676 17.1521 160.473 17.8421 161.044 18.727C161.614 19.6123 161.899 20.6194 161.899 21.7481C161.899 22.8771 161.614 23.8876 161.044 24.7797C160.468 25.6764 159.639 26.4008 158.652 26.8704C157.628 27.3722 156.473 27.623 155.186 27.623C153.914 27.623 152.765 27.3721 151.742 26.8704ZM156.985 23.7448C157.453 23.2639 157.687 22.5983 157.687 21.7481C157.687 20.9118 157.453 20.2567 156.985 19.7828C156.517 19.3091 155.917 19.0722 155.186 19.072C154.454 19.072 153.855 19.3089 153.387 19.7828C152.919 20.2569 152.685 20.9119 152.685 21.7481C152.685 22.5985 152.919 23.264 153.387 23.7448C153.855 24.2256 154.455 24.466 155.186 24.466C155.917 24.466 156.517 24.2256 156.985 23.7448Z" fill="white"/>
  </g>
  <defs>
    <linearGradient id="paint0_linear" x1="7.15916" y1="1.38092" x2="24.9647" y2="33.4112" gradientUnits="userSpaceOnUse">
      <stop stop-color="#FF5C5C"/>
      <stop offset="1" stop-color="#E52643"/>
    </linearGradient>
    <clipPath id="clip0">
      <rect width="161.901" height="36" fill="white"/>
    </clipPath>
  </defs>
</svg>
