<svg xmlns="http://www.w3.org/2000/svg" xmlns:xlink="http://www.w3.org/1999/xlink" width="163" height="50" viewBox="0 0 163 50">
  <defs>
    <polygon id="sidebar-a" points=".087 .079 5.636 .079 5.636 2.318 .087 2.318"/>
    <polygon id="sidebar-c" points="0 .022 8.844 .022 8.844 14.865 0 14.865"/>
    <polygon id="sidebar-e" points=".087 .039 18.403 .039 18.403 6.387 .087 6.387"/>
  </defs>
  <g fill="none" fill-rule="evenodd">
    <g transform="translate(0 -.149)">
      <path fill="#E65B2E" d="M18.8688421,6.35383929 L18.8688421,4.12169643 C18.8688421,4.12169643 16.1620752,3.08002976 14.8086917,2.48479167 C13.4553083,1.88955357 11.765985,2.37184524 12.113203,3.41738095 C12.4133534,4.32035714 14.3841805,5.05830357 16.0679398,6.30800595 C17.2014737,7.149375 17.5891429,7.59 17.4387669,10.2685714 C17.288391,12.9471429 16.699218,14.8359821 19.694406,14.4352381 C23.3562105,13.9453571 25.0064361,13.24 29.3369624,11.3071131 C29.3369624,11.3071131 26.9891429,2.58895833 24.5831278,0.952053571 C24.5831278,0.952053571 22.9289925,5.01455357 18.8688421,6.35383929"/>
      <path fill="#E65B2E" d="M33.6056842,13.03 C36.1082406,11.7881845 38.1924511,10.1663095 38.7184662,11.5419048 C40.8237293,17.0478571 30.855609,24.1883333 30.855609,24.1883333 C42.0668872,17.4587202 40.0718496,11.3930952 39.169594,10.0538095 C38.2673383,8.71452381 37.2147068,8.86333333 33.0041805,10.9466667 C27.0984662,13.8688393 22.7395188,15.857381 18.5680902,15.857381 C15.4101955,15.857381 9.99666165,15.4109524 2.77861654,10.9466667 C2.77861654,10.9466667 10.4477895,17.9407143 18.5680902,17.9407143 C25.6214737,17.9407143 31.2011729,14.2233036 33.6056842,13.03"/>
      <path fill="#BA3F20" d="M0.67512782,7.80205357 C3.08114286,7.05800595 3.68264662,8.69491071 6.08866165,10.0341964 C4.08715789,10.5679762 3.0121203,8.18032738 0.67512782,7.80205357"/>
      <g transform="translate(12.632 .07)">
        <mask id="sidebar-b" fill="#fff">
          <use xlink:href="#sidebar-a"/>
        </mask>
        <path fill="#BA3F20" d="M0.0874285714,0.293660714 C2.4122406,-0.478511905 3.14742857,0.990684524 5.63645113,2.17193452 C3.61524812,2.94410714 3.01374436,0.414345238 0.0874285714,0.293660714" mask="url(#sidebar-b)"/>
      </g>
      <path fill="#ECB87F" d="M20.4153383,20.9392113 C20.4288722,21.4421875 20.2769925,21.9198661 20.1281203,22.2636161 C19.723609,22.1311756 19.3219549,22.0582589 18.8920301,22.0582589 C18.4604511,22.0582589 18.0604511,22.1088542 17.6589474,22.2115327 C17.4965414,21.8901042 17.3476692,21.4377232 17.3476692,20.8737351 C17.3476692,19.9020089 17.3822556,19.512128 18.8318797,19.512128 C20.2815038,19.512128 20.3897744,19.9749256 20.4153383,20.9392113"/>
      <path fill="#ECB87F" d="M18.3230075,20.8410417 C18.326015,21.35875 18.4899248,21.7740774 18.6538346,22.064256 C18.3109774,22.0791369 17.9846617,22.128244 17.6583459,22.2115774 C17.4959398,21.8901488 17.3470677,21.4377679 17.3470677,20.8737798 C17.3470677,19.9333036 17.38,19.5374702 18.6944361,19.5136607 C18.513985,19.8097917 18.3184962,20.2651488 18.3230075,20.8410417"/>
      <path fill="#3AB563" d="M18.8093684,23.1000744 C21.1946316,23.1000744 22.6824511,25.3268601 28.934782,27.8170387 C28.934782,27.8170387 28.7998947,28.9393601 28.4164361,29.4671875 C26.5489173,29.9701637 24.2325263,28.3456101 24.2325263,28.3456101 C24.3445564,28.9731399 26.3137293,31.1744792 27.9613985,31.212872 C27.9613985,31.212872 27.599594,31.9177827 25.524406,32.4033482 C25.8728271,33.1344494 26.8746316,33.4920387 26.8746316,33.4920387 C23.849218,36.4116815 24.783203,38.4158482 18.8818496,44.1313244 C19.1621504,42.3950149 19.9189925,40.9738839 19.2486165,39.7023065 C18.4765865,38.2380208 16.8893684,37.7761161 16.4720752,36.5106399 C15.9871128,34.794122 17.7317744,34.3497768 17.9758346,31.8259673 C17.9758346,31.8259673 15.3314737,32.3703125 12.6311729,31.1991815 C12.6311729,31.1991815 16.0648571,29.6485863 16.6853083,27.0918899 C16.6853083,27.0918899 12.8389925,28.5448661 8.82906767,27.8170387 C15.0398947,24.650372 16.4241053,23.1000744 18.8093684,23.1000744"/>
      <path fill="#1D753D" d="M10.4076992,30.7455952 C10.4076992,30.7455952 10.9183759,32.8433631 12.3812331,34.1375595 C13.5830376,35.2008036 13.9558195,36.583244 14.3576241,37.7994643 C14.3576241,37.7994643 13.208,35.8697024 11.6771729,34.514494 C10.2836391,33.2807143 10.4076992,30.7455952 10.4076992,30.7455952"/>
      <path fill="#E65B2E" d="M28.7178797,24.4963244 C28.7178797,24.4963244 31.8351729,25.9342708 35.9413383,26.055253 L33.708406,30.2473661 L32.1781805,30.3683482 C32.1781805,30.3683482 35.4469023,31.239628 37.5616391,34.4982589 C35.1244962,35.6379911 32.3156241,37.1976637 29.4063008,39.3393304 C24.4392331,42.995878 21.0381805,46.980997 18.8241955,50.0698363 C15.3288571,46.7748958 14.088406,45.2530208 14.088406,45.2530208 C17.1721654,47.0509375 18.7196842,48.827872 18.7196842,48.827872 C21.0446466,45.4437946 24.0897594,41.7676042 27.7849474,37.9936458 C29.7798346,35.9562946 31.7556241,34.1524256 33.6529173,32.5603125 C32.5250977,31.921622 31.3971278,31.2830804 30.2691579,30.6443899 L33.1392331,26.5988542 C33.1392331,26.5988542 30.0863008,26.0037649 28.7178797,24.4963244"/>
      <g transform="translate(0 24.475)">
        <mask id="sidebar-d" fill="#fff">
          <use xlink:href="#sidebar-c"/>
        </mask>
        <path fill="#BA3F20" d="M8.84374436,0.0216220238 C8.84374436,0.0216220238 6.78284211,1.29855655 2.67742857,1.7963244 L5.79276692,5.96269345 C5.79276692,5.96269345 2.3184812,7.53724702 -1.5037594e-05,10.0235565 C2.43712782,11.1634375 5.246,12.7229613 8.15532331,14.864628 C5.67953383,11.3085268 2.33381955,8.90287202 2.33381955,8.90287202 L3.1784812,9.0306994 C3.1784812,9.0306994 5.56464662,7.06775298 7.29246617,6.1696875 L4.42239098,2.12415179 C4.42239098,2.12415179 7.47532331,1.5290625 8.84374436,0.0216220238" mask="url(#sidebar-d)"/>
      </g>
      <path fill="#ECB87F" d="M29.0701805,18.3074405 C29.2969474,18.1578869 30.7148421,17.6196429 30.7832632,19.0175595 C30.8583008,20.5516369 29.8952932,22.5186012 29.8952932,22.5186012 C30.4778496,19.0299107 30.0704812,18.4671131 29.3516842,18.6154762 C29.1903308,18.6401786 29.0701805,18.3074405 29.0701805,18.3074405"/>
      <path fill="#FF8142" d="M29.3365714,11.3067708 C28.7561203,11.5656994 28.2237895,11.8037946 27.7290526,12.0210565 C26.826797,7.27552083 25.0132632,2.1906994 24.5681504,0.980877976 C24.5785263,0.961532738 24.583188,0.952604167 24.583188,0.952604167 C26.989203,2.58950893 29.3365714,11.3067708 29.3365714,11.3067708"/>
      <path fill="#BA3F20" d="M22.3680301,13.9586012 C21.5635188,14.1475893 20.7063759,14.299375 19.6944962,14.4347917 C16.6990075,14.8365774 17.2884812,12.9466964 17.4388571,10.268125 C17.5892331,7.58955357 17.2012632,7.14907738 16.0674286,6.30830357 C14.3845714,5.05830357 12.4132932,4.32005952 12.1140451,3.41693452 C11.7665263,2.37229167 13.4552481,1.89014881 14.8086316,2.4853869 C16.162015,3.080625 18.868782,4.12229167 18.868782,4.12229167 L18.868782,6.35443452 C19.5740451,6.12229167 20.2057744,5.80681548 20.7696842,5.44520833 C20.237203,7.12824405 19.5802105,9.99133929 21.3394586,12.6758631 C21.5575038,13.0091964 21.9696842,13.5389583 22.3680301,13.9586012"/>
      <g transform="translate(21.504 9.147)">
        <mask id="sidebar-f" fill="#fff">
          <use xlink:href="#sidebar-e"/>
        </mask>
        <path fill="#FF8142" d="M17.1502406,1.2721875 C16.352797,0.916979167 15.5541504,0.657752976 9.2452782,3.72174107 C4.35204511,6.09808036 0.0867819549,6.38721726 0.0867819549,6.38721726 L0.0884360902,6.38558036 C3.39505263,5.71296131 6.99806015,4.0269494 11.5004662,1.79927083 C15.7109925,-0.2840625 16.7636241,-0.432872024 17.6658797,0.90641369 C18.0057293,1.4111756 18.5009173,2.58662202 18.386782,4.21534226 C18.386782,4.21534226 18.0967068,1.69391369 17.1502406,1.2721875" mask="url(#sidebar-f)"/>
      </g>
      <path fill="#BA3F20" d="M24.8612782,16.9943155 C22.9545113,17.5568155 20.837218,17.940744 18.5680451,17.940744 C10.5740602,17.940744 3.01766917,11.1639583 2.78458647,10.9511607 C5.39360902,12.564256 7.76804511,13.6520536 9.88383459,14.3841964 C9.88383459,14.3841964 9.88533835,14.3841964 9.88684211,14.3856845 C10.0313534,14.4898512 15.5095489,18.3574107 24.8612782,16.9943155"/>
      <path fill="#CC9666" d="M18.3230075,20.8410417 C18.326015,21.35875 18.4899248,21.7740774 18.6538346,22.064256 C18.3109774,22.0791369 17.9846617,22.128244 17.6583459,22.2115774 C17.4959398,21.8901488 17.3470677,21.4377679 17.3470677,20.8737798 C17.3470677,19.9333036 17.38,19.5374702 18.6944361,19.5136607 C18.513985,19.8097917 18.3184962,20.2651488 18.3230075,20.8410417"/>
      <path fill="#49E484" d="M24.2327519,28.3454613 C24.3440301,28.9734375 26.3139549,31.1743304 27.9620752,31.2130208 C27.9620752,31.2130208 27.5996692,31.918378 25.5244812,32.403497 C25.8733534,33.1341518 26.8748571,33.4912946 26.8748571,33.4912946 C23.8492932,36.4109375 24.7831278,38.4154018 18.8823759,44.1311756 C19.650797,43.2904018 21.4011729,41.2904018 22.6898947,38.8692708 C23.2989173,37.7235863 23.7184662,36.6475446 23.8733534,36.247247 C24.3665865,34.9689732 24.4929023,34.3365327 24.5395188,34.0865327 C24.6808722,33.3186756 24.7004211,32.6654018 24.6898947,32.2055804 C25.1560602,32.0820685 25.6237293,31.9585565 26.0898947,31.8335565 C25.6913985,31.6401042 24.6523008,31.0656994 23.9650827,29.8305804 C23.3981654,28.8112351 23.3560602,27.8529018 23.3650827,27.4049851 C23.525985,27.4436756 23.7771128,27.480878 24.0778647,27.4421875 C24.5064361,27.387128 24.8116992,27.2026042 24.9650827,27.0954613 C24.0492932,26.4689732 23.056812,25.6594494 22.0990677,24.6177827 C21.9199699,24.4228423 21.7500451,24.2279018 21.5876391,24.0359375 C23.1335038,24.9139137 25.169594,26.3186756 28.9351579,27.8171875 C28.9351579,27.8171875 28.7996692,28.9392113 28.4162105,29.4674851 C26.5485414,29.9704613 24.2327519,28.3454613 24.2327519,28.3454613"/>
      <path fill="#1D753D" d="M18.1395789,35.965997 C17.9546165,37.2904018 18.4822857,38.4645089 18.9710075,39.2591518 C18.145594,38.1281994 16.8448421,37.6386161 16.4717594,36.5106399 C15.9875489,34.7948661 17.7320602,34.3499256 17.9755188,31.8261161 C17.9755188,31.8261161 15.3320602,32.3707589 12.6311579,31.199628 C12.6311579,31.199628 16.0642406,29.6490327 16.6854436,27.0924851 C16.6854436,27.0924851 12.8388271,28.5448661 8.82980451,27.8171875 C14.7424361,24.8023065 16.2794286,23.2517113 18.4719098,23.1118304 L18.4747669,23.1118304 C18.6146165,23.8424851 18.7230376,24.8662946 18.5726617,26.0686756 C18.3425865,27.9064732 17.620782,29.2695685 17.1395789,30.028497 C17.4147669,30.1177827 17.9260451,30.2457589 18.5634887,30.1713542 C19.1334135,30.1043899 19.5621353,29.9020089 19.8057444,29.7636161 C19.7561203,31.4883185 19.3816842,32.7636161 19.0386767,33.6237351 C18.6283008,34.6549851 18.2613835,35.0865327 18.1395789,35.965997"/>
      <path fill="#FF8142" d="M37.562015 34.49875C35.1244211 35.638631 32.3153985 37.1981548 29.4057744 39.3395238 27.8417143 40.4898214 26.4326917 41.6743452 25.1680301 42.8529167 25.0793083 42.9347619 24.9920902 43.0166071 24.9065263 43.0984524 24.8193083 43.1802976 24.7320902 43.2621429 24.6477293 43.3454762 24.5305865 43.4570833 24.4161504 43.5686905 24.3018647 43.6802976 24.1877293 43.7904167 24.0763008 43.9020238 23.9650226 44.013631 23.8538947 44.1252381 23.7439699 44.2353571 23.6343459 44.3469643 23.5275789 44.4555952 23.4223158 44.5657143 23.3155489 44.6743452 24.7981053 42.6594643 26.7153985 40.4392262 29.1650226 38.2666071 31.4809624 36.2145238 33.7606617 34.6594643 35.7635188 33.4913095 35.7635188 33.4913095 35.474797 32.6728571 34.7093835 31.607381 35.6163008 32.2204762 36.6221654 33.1044048 37.4629173 34.3484524 37.502015 34.4064881 37.5349474 34.4570833 37.562015 34.49875M35.9410677 26.0552679L33.7078346 30.2472321 33.1681353 30.2903869C33.5258797 29.5031845 34.1561053 27.7546726 34.4207669 26.5136012 34.4207669 26.5136012 34.2132481 26.2740179 32.4854286 25.6475298 33.107985 25.775506 33.7906917 25.885625 34.5168571 25.9600298 34.974 26.0076488 35.4506917 26.0403869 35.9410677 26.0552679"/>
      <path fill="#CC9666" d="M16.8888571,22.4939435 C16.3450977,22.6609077 14.2506617,23.7933482 12.910812,24.5567411 C12.392015,24.0195387 11.6070526,23.1281696 11.0566767,22.1460268 C10.1679549,20.5612054 10.3138195,18.3826339 10.3138195,18.3826339 C11.2972782,18.1013839 12.2205865,18.8244494 12.2205865,18.8244494 C11.7694586,19.1220685 11.7694586,19.4196875 11.7694586,19.4196875 C13.3275038,21.4210268 15.0094586,19.9640327 15.7359248,20.9406696 C15.7359248,20.9406696 14.5593835,21.3969196 14.088406,22.5722173 C15.3969774,21.6732589 16.6475038,21.9585268 16.6475038,21.9585268 C16.7305113,22.2635863 16.8888571,22.4939435 16.8888571,22.4939435"/>
      <path fill="#ECB87F" d="M25.2078346,24.7041369 L27.3567068,23.9184226 C27.3191128,23.955625 26.6544511,24.6327083 26.0197143,25.4422321 C24.1958045,24.5374702 22.2246767,23.0660417 20.8827218,22.5215476 C20.8827218,22.5215476 21.0270827,22.162619 21.067985,21.9586012 C21.067985,21.9586012 22.3082857,21.67125 23.6959549,22.545506 C23.2959549,21.3088988 22.0370075,20.9350893 22.0370075,20.9350893 C22.8777594,19.9639583 24.861218,21.368125 25.9150526,19.458006 C25.9150526,19.458006 25.9150526,19.1603869 25.4639248,18.8627679 C25.4639248,18.8627679 26.8526466,18.0526488 28.1161053,18.3961012 C28.1161053,18.3961012 28.2619699,20.5746726 27.3730977,22.159494 C26.4845263,23.7458036 25.2078346,24.7041369 25.2078346,24.7041369"/>
      <path fill="#FFD8AD" d="M27.3725714 22.1594792C26.5110677 23.6966815 25.2868571 24.6431101 25.2101654 24.7011458 25.7304662 24.0880506 26.6479098 22.8350744 27.0146767 21.0091815 27.2282105 19.9481696 27.1849023 18.9965327 27.0961805 18.3313542 27.4330226 18.282247 27.7892632 18.3068006 28.1020451 18.3931101 28.106406 18.3931101 28.1109173 18.3945982 28.1154286 18.3960863 28.1154286 18.3960863 28.2612932 20.5746577 27.3725714 22.1594792M20.2027068 20.9076042C20.213985 21.327247 20.087218 21.7259077 19.9630075 22.0126637 19.9115789 21.995253 19.4141353 21.2692113 19.6532331 20.5227827 19.7264662 20.2939137 19.8326316 20.1067113 19.9406015 19.964003 20.158797 20.1589435 20.1914286 20.4717411 20.2027068 20.9076042"/>
      <path fill="#FFF" d="M14.9740602 19.4570833C14.8328571 19.8529167 14.3951128 20.0597619 13.9951128 19.919881 13.5951128 19.78 13.3860902 19.3484524 13.527594 18.952619L13.7815789 19.0419048 13.7815789 19.0523214C13.7815789 19.3305952 14.0101504 19.5552976 14.2898496 19.5552976 14.4539098 19.5552976 14.5996241 19.4779167 14.6930075 19.358869L14.9740602 19.4570833zM23.6688421 19.9198512C23.2688421 20.0597321 22.8312481 19.8528869 22.6898947 19.4570536L22.9816241 19.3558631C23.0733534 19.4778869 23.2207218 19.5552679 23.3861353 19.5552679 23.6658346 19.5552679 23.8929023 19.3305655 23.8929023 19.0522917 23.8929023 19.0478274 23.8929023 19.041875 23.8913985 19.0374107L24.1365113 18.9525893C24.2778647 19.3484226 24.0688421 19.7799702 23.6688421 19.9198512"/>
    </g>
    <g fill-rule="nonzero" transform="translate(52 9)">
      <path fill="#49E484" d="M4.104,24.048 C5.016,24.048 5.868,23.904 6.66,23.616 C7.452,23.328 8.14,22.92 8.724,22.392 C9.308,21.864 9.772,21.236 10.116,20.508 C10.46,19.78 10.632,18.968 10.632,18.072 C10.632,17.224 10.524,16.524 10.308,15.972 C10.092,15.42 9.824,14.96 9.504,14.592 C9.184,14.224 8.836,13.924 8.46,13.692 C8.084,13.46 7.736,13.232 7.416,13.008 C7.096,12.784 6.828,12.544 6.612,12.288 C6.396,12.032 6.288,11.712 6.288,11.328 C6.288,11.088 6.352,10.864 6.48,10.656 C6.608,10.448 6.764,10.268 6.948,10.116 C7.132,9.964 7.316,9.84 7.5,9.744 C7.684,9.648 7.84,9.6 7.968,9.6 C8.24,9.6 8.46,9.708 8.628,9.924 C8.796,10.14 8.88,10.488 8.88,10.968 C8.88,11.096 8.868,11.224 8.844,11.352 C8.82,11.48 8.792,11.608 8.76,11.736 L8.76,11.736 L12.24,10.728 C12.272,10.472 12.308,10.232 12.348,10.008 C12.388,9.784 12.408,9.56 12.408,9.336 C12.408,8.808 12.324,8.368 12.156,8.016 C11.988,7.664 11.764,7.372 11.484,7.14 C11.204,6.908 10.872,6.74 10.488,6.636 C10.104,6.532 9.696,6.48 9.264,6.48 C8.48,6.48 7.648,6.632 6.768,6.936 C5.888,7.24 5.076,7.652 4.332,8.172 C3.588,8.692 2.968,9.312 2.472,10.032 C1.976,10.752 1.728,11.528 1.728,12.36 C1.728,12.872 1.856,13.336 2.112,13.752 C2.368,14.168 2.676,14.544 3.036,14.88 C3.396,15.216 3.792,15.536 4.224,15.84 C4.656,16.144 5.056,16.444 5.424,16.74 C5.792,17.036 6.1,17.348 6.348,17.676 C6.596,18.004 6.72,18.36 6.72,18.744 C6.72,18.968 6.668,19.164 6.564,19.332 C6.46,19.5 6.32,19.648 6.144,19.776 C5.968,19.904 5.776,20 5.568,20.064 C5.36,20.128 5.16,20.16 4.968,20.16 C4.744,20.16 4.492,20.108 4.212,20.004 C3.932,19.9 3.652,19.768 3.372,19.608 C3.092,19.448 2.84,19.26 2.616,19.044 C2.392,18.828 2.224,18.616 2.112,18.408 L2.112,18.408 L0.336,21.888 C0.928,22.64 1.544,23.188 2.184,23.532 C2.824,23.876 3.464,24.048 4.104,24.048 Z M11.608,24.048 C12.04,23.904 12.524,23.78 13.06,23.676 C13.596,23.572 14.144,23.488 14.704,23.424 C15.264,23.36 15.82,23.312 16.372,23.28 C16.924,23.248 17.448,23.232 17.944,23.232 C18.072,23.232 18.196,23.236 18.316,23.244 L18.499,23.253 L18.499,23.253 L18.688,23.256 C18.672,23.192 18.652,23.068 18.628,22.884 C18.604,22.7 18.572,22.488 18.532,22.248 C18.492,22.008 18.456,21.74 18.424,21.444 C18.392,21.148 18.368,20.848 18.352,20.544 C18,20.544 17.596,20.548 17.14,20.556 C16.684,20.564 16.256,20.584 15.856,20.616 C15.936,20.056 16.04,19.416 16.168,18.696 C16.296,17.976 16.44,17.232 16.6,16.464 C16.76,15.696 16.928,14.908 17.104,14.1 C17.28,13.292 17.456,12.512 17.632,11.76 C18.032,10 18.448,8.192 18.88,6.336 L18.88,6.336 L14.68,6.888 C14.232,9.064 13.808,11.2 13.408,13.296 C13.232,14.176 13.06,15.096 12.892,16.056 C12.724,17.016 12.556,17.968 12.388,18.912 C12.22,19.856 12.072,20.768 11.944,21.648 C11.816,22.528 11.704,23.328 11.608,24.048 Z M23.912,24.096 C24.536,24.096 25.192,23.956 25.88,23.676 C26.568,23.396 27.248,22.988 27.92,22.452 C28.592,21.916 29.236,21.268 29.852,20.508 C30.468,19.748 31.008,18.884 31.472,17.916 C31.936,16.948 32.308,15.884 32.588,14.724 C32.868,13.564 33.008,12.328 33.008,11.016 C33.008,10.424 32.952,9.832 32.84,9.24 C32.728,8.648 32.54,8.116 32.276,7.644 C32.012,7.172 31.644,6.788 31.172,6.492 C30.7,6.196 30.104,6.048 29.384,6.048 C28.552,6.048 27.752,6.248 26.984,6.648 C26.216,7.048 25.496,7.588 24.824,8.268 C24.152,8.948 23.536,9.728 22.976,10.608 C22.416,11.488 21.944,12.416 21.56,13.392 C21.176,14.368 20.872,15.352 20.648,16.344 C20.424,17.336 20.312,18.28 20.312,19.176 C20.312,20.04 20.404,20.78 20.588,21.396 C20.772,22.012 21.024,22.516 21.344,22.908 C21.664,23.3 22.04,23.596 22.472,23.796 C22.904,23.996 23.384,24.096 23.912,24.096 Z M25.208,20.136 C25.016,20.136 24.836,20.084 24.668,19.98 C24.5,19.876 24.36,19.752 24.248,19.608 C24.136,19.464 24.048,19.296 23.984,19.104 C23.92,18.912 23.888,18.728 23.888,18.552 C23.888,18.168 23.928,17.712 24.008,17.184 C24.088,16.656 24.22,16.116 24.404,15.564 C24.588,15.012 24.808,14.468 25.064,13.932 C25.32,13.396 25.62,12.916 25.964,12.492 C26.308,12.068 26.696,11.728 27.128,11.472 C27.56,11.216 28.032,11.088 28.544,11.088 C28.8,11.088 29.004,11.156 29.156,11.292 C29.308,11.428 29.42,11.592 29.492,11.784 C29.564,11.976 29.612,12.184 29.636,12.408 C29.66,12.632 29.672,12.84 29.672,13.032 C29.672,13.704 29.572,14.448 29.372,15.264 C29.172,16.08 28.888,16.848 28.52,17.568 C28.152,18.288 27.688,18.896 27.128,19.392 C26.568,19.888 25.928,20.136 25.208,20.136 Z M34.56,24.024 L38.88,23.352 C39.104,21.656 39.344,20.016 39.6,18.432 C39.712,17.76 39.824,17.056 39.936,16.32 C40.048,15.584 40.164,14.86 40.284,14.148 C40.404,13.436 40.528,12.748 40.656,12.084 C40.784,11.42 40.904,10.816 41.016,10.272 C41.368,10.208 41.724,10.156 42.084,10.116 C42.444,10.076 42.8,10.008 43.152,9.912 C43.216,9.64 43.284,9.312 43.356,8.928 C43.428,8.544 43.504,8.168 43.584,7.8 L43.584,7.8 L43.848,6.504 C43.224,6.584 42.588,6.652 41.94,6.708 C41.292,6.764 40.588,6.812 39.828,6.852 C39.068,6.892 38.28,6.912 37.464,6.912 C37.048,6.912 36.632,6.904 36.216,6.888 C35.8,6.872 35.384,6.848 34.968,6.816 C34.952,7.232 34.936,7.624 34.92,7.992 C34.904,8.328 34.896,8.664 34.896,9 C34.896,9.336 34.888,9.632 34.872,9.888 C35.24,10 35.612,10.048 35.988,10.032 C36.364,10.016 36.736,10.032 37.104,10.08 C37.024,10.672 36.932,11.324 36.828,12.036 C36.724,12.748 36.604,13.484 36.468,14.244 C36.332,15.004 36.192,15.776 36.048,16.56 C35.904,17.344 35.76,18.096 35.616,18.816 C35.28,20.528 34.928,22.264 34.56,24.024 L34.56,24.024 Z"/>
      <path fill="#FFF" d="M45.216,24.048 L48.912,23.28 L48.912,23.28 L49.44,20.688 C49.568,19.968 49.708,19.208 49.86,18.408 C50.012,17.608 50.144,16.904 50.256,16.296 L50.256,16.296 L52.584,16.08 C52.488,16.672 52.356,17.384 52.188,18.216 C52.02,19.048 51.856,19.848 51.696,20.616 C51.536,21.528 51.352,22.464 51.144,23.424 L51.144,23.424 L54.888,22.992 C55.192,20.864 55.52,18.784 55.872,16.752 C56.016,15.904 56.176,15.008 56.352,14.064 C56.528,13.12 56.712,12.188 56.904,11.268 C57.096,10.348 57.292,9.46 57.492,8.604 C57.692,7.748 57.904,6.96 58.128,6.24 C58.128,6.24 57.996,6.252 57.732,6.276 C57.468,6.3 57.144,6.328 56.76,6.36 C56.376,6.392 55.96,6.428 55.512,6.468 C55.064,6.508 54.656,6.56 54.288,6.624 C54,7.76 53.768,8.86 53.592,9.924 C53.416,10.988 53.216,12.088 52.992,13.224 L52.992,13.224 L50.616,13.488 C50.84,12.336 51.084,11.152 51.348,9.936 C51.612,8.72 51.88,7.552 52.152,6.432 L52.152,6.432 L48.264,6.696 C48.152,7.432 48.024,8.244 47.88,9.132 C47.736,10.02 47.584,10.936 47.424,11.88 C47.264,12.824 47.096,13.78 46.92,14.748 C46.744,15.716 46.584,16.648 46.44,17.544 C46.04,19.672 45.632,21.84 45.216,24.048 L45.216,24.048 Z M60.568,24.432 C61.192,24.432 61.816,24.336 62.44,24.144 C63.064,23.952 63.652,23.648 64.204,23.232 C64.756,22.816 65.236,22.288 65.644,21.648 C66.052,21.008 66.368,20.232 66.592,19.32 C66.768,18.552 66.948,17.708 67.132,16.788 C67.316,15.868 67.504,14.932 67.696,13.98 C67.888,13.028 68.06,12.112 68.212,11.232 C68.364,10.352 68.504,9.568 68.632,8.88 C68.76,8.192 68.864,7.64 68.944,7.224 C69.024,6.808 69.064,6.6 69.064,6.6 L69.064,6.6 L65.416,6.84 C65.16,8.344 64.896,9.8 64.624,11.208 C64.512,11.816 64.396,12.44 64.276,13.08 C64.156,13.72 64.036,14.348 63.916,14.964 C63.796,15.58 63.676,16.172 63.556,16.74 C63.436,17.308 63.328,17.824 63.232,18.288 C63.184,18.464 63.132,18.708 63.076,19.02 C63.02,19.332 62.932,19.64 62.812,19.944 C62.692,20.248 62.544,20.508 62.368,20.724 C62.192,20.94 61.968,21.048 61.696,21.048 C61.504,21.048 61.344,20.964 61.216,20.796 C61.088,20.628 61.024,20.416 61.024,20.16 C61.024,19.84 61.06,19.484 61.132,19.092 C61.204,18.7 61.268,18.376 61.324,18.12 C61.38,17.864 61.452,17.532 61.54,17.124 C61.628,16.716 61.732,16.232 61.852,15.672 C61.972,15.112 62.1,14.496 62.236,13.824 C62.372,13.152 62.512,12.48 62.656,11.808 C62.976,10.24 63.344,8.488 63.76,6.552 C63.28,6.6 62.792,6.648 62.296,6.696 C61.896,6.728 61.464,6.768 61,6.816 C60.536,6.864 60.136,6.904 59.8,6.936 C59.768,7.064 59.696,7.404 59.584,7.956 C59.472,8.508 59.34,9.2 59.188,10.032 C59.036,10.864 58.864,11.788 58.672,12.804 C58.48,13.82 58.304,14.832 58.144,15.84 C57.984,16.848 57.832,17.816 57.688,18.744 C57.544,19.672 57.44,20.464 57.376,21.12 C57.36,21.184 57.352,21.248 57.352,21.312 L57.352,21.312 L57.352,21.504 C57.352,22 57.452,22.432 57.652,22.8 C57.852,23.168 58.104,23.472 58.408,23.712 C58.712,23.952 59.056,24.132 59.44,24.252 C59.824,24.372 60.2,24.432 60.568,24.432 Z M67.784,24.12 L71.288,23.304 C71.528,22.136 71.752,21.016 71.96,19.944 C72.056,19.496 72.144,19.028 72.224,18.54 C72.304,18.052 72.384,17.584 72.464,17.136 C72.544,16.688 72.624,16.264 72.704,15.864 C72.784,15.464 72.848,15.112 72.896,14.808 C72.96,15.112 73.024,15.472 73.088,15.888 C73.152,16.304 73.216,16.752 73.28,17.232 C73.344,17.712 73.404,18.212 73.46,18.732 C73.516,19.252 73.568,19.76 73.616,20.256 C73.728,21.408 73.832,22.624 73.928,23.904 C74.136,23.824 74.452,23.736 74.876,23.64 L74.876,23.64 L76.148,23.352 C76.572,23.256 76.948,23.172 77.276,23.1 C77.604,23.028 77.792,22.992 77.84,22.992 C77.904,22.48 77.992,21.844 78.104,21.084 C78.216,20.324 78.352,19.5 78.512,18.612 C78.672,17.724 78.844,16.796 79.028,15.828 C79.212,14.86 79.4,13.904 79.592,12.96 C80.008,10.768 80.488,8.448 81.032,6 L81.032,6 L78.104,6.36 C77.864,7.464 77.632,8.536 77.408,9.576 C77.312,10.04 77.22,10.508 77.132,10.98 C77.044,11.452 76.952,11.92 76.856,12.384 C76.76,12.848 76.672,13.292 76.592,13.716 C76.512,14.14 76.44,14.512 76.376,14.832 C76.232,14.16 76.068,13.344 75.884,12.384 C75.7,11.424 75.52,10.488 75.344,9.576 C75.168,8.536 74.968,7.456 74.744,6.336 C74.376,6.352 74.032,6.368 73.712,6.384 C73.392,6.4 73.072,6.412 72.752,6.42 C72.432,6.428 72.16,6.432 71.936,6.432 L71.432,6.432 C71.288,6.432 71.112,6.424 70.904,6.408 C70.84,7.128 70.744,7.932 70.616,8.82 C70.488,9.708 70.344,10.636 70.184,11.604 C70.024,12.572 69.852,13.552 69.668,14.544 C69.484,15.536 69.312,16.496 69.152,17.424 C68.72,19.584 68.264,21.816 67.784,24.12 L67.784,24.12 Z M81.672,24.024 L85.992,23.352 C86.216,21.656 86.456,20.016 86.712,18.432 C86.824,17.76 86.936,17.056 87.048,16.32 C87.16,15.584 87.276,14.86 87.396,14.148 C87.516,13.436 87.64,12.748 87.768,12.084 C87.896,11.42 88.016,10.816 88.128,10.272 C88.48,10.208 88.836,10.156 89.196,10.116 C89.556,10.076 89.912,10.008 90.264,9.912 C90.328,9.64 90.396,9.312 90.468,8.928 C90.54,8.544 90.616,8.168 90.696,7.8 L90.696,7.8 L90.96,6.504 C90.336,6.584 89.7,6.652 89.052,6.708 C88.404,6.764 87.7,6.812 86.94,6.852 C86.18,6.892 85.392,6.912 84.576,6.912 C84.16,6.912 83.744,6.904 83.328,6.888 C82.912,6.872 82.496,6.848 82.08,6.816 C82.064,7.232 82.048,7.624 82.032,7.992 C82.016,8.328 82.008,8.664 82.008,9 C82.008,9.336 82,9.632 81.984,9.888 C82.352,10 82.724,10.048 83.1,10.032 C83.476,10.016 83.848,10.032 84.216,10.08 C84.136,10.672 84.044,11.324 83.94,12.036 C83.836,12.748 83.716,13.484 83.58,14.244 C83.444,15.004 83.304,15.776 83.16,16.56 C83.016,17.344 82.872,18.096 82.728,18.816 C82.392,20.528 82.04,22.264 81.672,24.024 L81.672,24.024 Z M89.392,24.024 L97.144,22.824 L97.384,20.088 L93.88,20.64 L94.696,16.224 C95.192,16.208 95.648,16.192 96.064,16.176 C96.432,16.16 96.796,16.148 97.156,16.14 C97.516,16.132 97.776,16.12 97.936,16.104 C98.016,15.656 98.084,15.216 98.14,14.784 C98.196,14.352 98.256,13.912 98.32,13.464 C98.144,13.48 97.872,13.488 97.504,13.488 C97.136,13.488 96.776,13.496 96.424,13.512 C95.992,13.528 95.528,13.552 95.032,13.584 L95.032,13.584 L95.872,9.288 L95.872,9.288 L96.772,9.288 C97.116,9.288 97.456,9.284 97.792,9.276 C98.128,9.268 98.444,9.26 98.74,9.252 C99.036,9.244 99.264,9.232 99.424,9.216 C99.472,8.96 99.532,8.668 99.604,8.34 C99.676,8.012 99.752,7.696 99.832,7.392 C99.912,7.024 100.008,6.664 100.12,6.312 L100.12,6.312 L92.536,6.96 L89.392,24.024 Z M98.48,24.024 L102.368,23.016 C102.512,22.248 102.656,21.488 102.8,20.736 C102.912,20.096 103.036,19.432 103.172,18.744 C103.308,18.056 103.424,17.456 103.52,16.944 L103.52,16.944 L103.832,16.848 C103.848,17.024 103.888,17.252 103.952,17.532 C104.016,17.812 104.096,18.128 104.192,18.48 C104.288,18.832 104.392,19.204 104.504,19.596 C104.616,19.988 104.728,20.368 104.84,20.736 C105.096,21.632 105.384,22.592 105.704,23.616 L105.704,23.616 L109.424,22.32 C109.088,21.52 108.76,20.72 108.44,19.92 C108.152,19.232 107.844,18.508 107.516,17.748 C107.188,16.988 106.88,16.288 106.592,15.648 C107.152,15.36 107.676,14.988 108.164,14.532 C108.652,14.076 109.084,13.572 109.46,13.02 C109.836,12.468 110.136,11.884 110.36,11.268 C110.584,10.652 110.696,10.024 110.696,9.384 C110.696,8.952 110.648,8.56 110.552,8.208 C110.456,7.856 110.292,7.548 110.06,7.284 C109.828,7.02 109.508,6.816 109.1,6.672 C108.692,6.528 108.176,6.456 107.552,6.456 C106.512,6.456 105.464,6.524 104.408,6.66 C103.352,6.796 102.368,7.008 101.456,7.296 C101.376,8 101.268,8.78 101.132,9.636 C100.996,10.492 100.852,11.38 100.7,12.3 C100.548,13.22 100.384,14.148 100.208,15.084 C100.032,16.02 99.872,16.92 99.728,17.784 C99.328,19.816 98.912,21.896 98.48,24.024 L98.48,24.024 Z M104.12,13.608 L104.888,9.792 C105.032,9.792 105.196,9.788 105.38,9.78 C105.564,9.772 105.744,9.768 105.92,9.768 C106.176,9.768 106.424,9.776 106.664,9.792 C106.904,9.808 107.124,9.844 107.324,9.9 C107.524,9.956 107.68,10.036 107.792,10.14 C107.904,10.244 107.96,10.384 107.96,10.56 C107.96,10.816 107.816,11.112 107.528,11.448 C107.24,11.784 106.896,12.108 106.496,12.42 C106.096,12.732 105.676,13 105.236,13.224 C104.796,13.448 104.424,13.576 104.12,13.608 L104.12,13.608 Z"/>
    </g>
  </g>
</svg>
